<svg width="1440" height="706" viewBox="0 0 1440 706" fill="none" xmlns="http://www.w3.org/2000/svg">
    <mask id="mask0_8833_24385" style="mask-type:alpha" maskUnits="userSpaceOnUse" x="0" y="0" width="1440" height="706">
        <rect width="1440" height="706" fill="#C20001"/>
    </mask>
    <g mask="url(#mask0_8833_24385)">
        <rect width="1440" height="706" fill="#3F67BA"/>
        <rect width="1440" height="706" fill="url(#paint0_radial_8833_24385)"/>
        <circle opacity="0.5" cx="720" cy="622" r="192" stroke="url(#paint1_linear_8833_24385)" stroke-width="24"/>
        <circle opacity="0.3" cx="720" cy="622" r="246" stroke="url(#paint2_linear_8833_24385)" stroke-width="24"/>
        <circle opacity="0.1" cx="720" cy="622" r="301" stroke="url(#paint3_linear_8833_24385)" stroke-width="24"/>
        <g opacity="0.1">
            <path fill-rule="evenodd" clip-rule="evenodd" d="M1275.11 516.389C1275.47 516.172 1275.78 515.719 1276.03 515.214C1279.31 516.521 1281.61 519.609 1281.61 523.21C1281.61 527.994 1277.55 531.872 1272.53 531.872C1270.47 531.872 1268.57 531.218 1267.05 530.117C1266.55 529.886 1266.13 529.665 1265.8 529.483C1265.28 529.202 1264.93 529.017 1264.72 529.046C1264.09 529.131 1264.27 529.693 1264.44 530.203C1264.55 530.55 1264.66 530.873 1264.49 531.006C1264.33 531.146 1263.78 530.636 1263.14 530.04C1262.26 529.228 1261.22 528.258 1260.73 528.549C1260.34 528.78 1260.71 529.405 1261.18 530.17L1261.21 530.227C1261.41 530.551 1261.63 530.88 1261.84 531.181C1262.26 531.792 1262.6 532.284 1262.43 532.368C1262.22 532.468 1260.8 531.53 1259.6 530.227C1259.13 529.725 1258.68 529.18 1258.27 528.673V528.673C1257.35 527.564 1256.59 526.641 1256.16 526.75C1255.65 526.882 1256.04 527.916 1256.61 528.911C1256.88 529.376 1257.19 529.85 1257.46 530.26V530.26C1257.89 530.898 1258.21 531.382 1258.09 531.442C1257.93 531.522 1256.55 530.207 1255.61 528.549C1255.05 527.565 1254.58 526.477 1254.2 525.596C1253.79 524.641 1253.49 523.929 1253.28 523.858C1252.58 523.609 1252.58 525.003 1252.86 527.014C1252.9 527.277 1252.96 527.552 1253.02 527.832C1255.75 536.435 1264.13 542.699 1274.04 542.699C1286.17 542.699 1296 533.327 1296 521.766C1296 510.763 1287.1 501.742 1275.78 500.898C1275.8 500.38 1276.07 499.352 1276.07 499.352C1276.07 499.352 1278.07 494.641 1278.18 493.634C1278.18 493.567 1278.19 493.495 1278.2 493.418C1278.32 492.33 1278.56 490.308 1276.77 490.308C1275.82 490.308 1275.37 490.999 1274.87 491.789V491.789C1274.67 492.093 1274.47 492.411 1274.22 492.71C1272.45 494.866 1269.48 497.557 1267.79 498.991C1264.22 502.022 1260.72 504.514 1258.68 505.966L1258.68 505.967C1257.75 506.627 1257.12 507.073 1256.93 507.258C1255.46 508.647 1250.22 517.863 1250.22 517.863C1250.22 517.863 1248.53 520.82 1249.13 521.42C1249.73 522.019 1251.18 521.882 1251.18 521.882C1251.18 521.882 1270.7 517.517 1272.45 517.173C1272.92 517.08 1273.25 517.026 1273.51 516.985C1274.2 516.874 1274.33 516.854 1275.11 516.389ZM1261.31 510.78C1260.26 511.75 1258.52 514.068 1258.52 514.068C1258.52 514.068 1261.75 514.262 1263.53 512.614C1265.31 510.966 1264.9 508.157 1264.9 508.157C1264.9 508.157 1262.35 509.809 1261.31 510.78Z" fill="white"/>
            <path fill-rule="evenodd" clip-rule="evenodd" d="M366.447 327.255C366.437 327.229 366.458 327.201 366.487 327.201H383.941C383.959 327.201 383.976 327.213 383.981 327.23L391.998 352.044C392.007 352.07 391.986 352.097 391.957 352.097H380.338C380.324 352.097 380.313 352.11 380.317 352.123L386.981 374.598C386.994 374.642 386.935 374.67 386.906 374.634L361.009 341.639C360.987 341.612 361.008 341.573 361.043 341.573H371.588C371.603 341.573 371.613 341.559 371.608 341.546L366.447 327.255Z" fill="white"/>
            <path fill-rule="evenodd" clip-rule="evenodd" d="M1223.56 226.841C1224.25 224.384 1222.9 219.335 1222.9 219.335C1222.9 219.335 1221.93 223.448 1220.41 224.969C1219.11 226.266 1217.51 227.165 1215.23 227.402C1217.1 226.522 1218.38 224.688 1218.38 222.568C1218.38 219.592 1215.85 217.179 1212.73 217.179C1209.61 217.179 1207.08 219.592 1207.08 222.568C1207.08 223.38 1207.27 224.151 1207.61 224.842C1205.65 223.334 1205.35 220.915 1205.35 220.915C1205.35 220.915 1203.17 229.694 1209.17 233.823C1215.18 237.953 1226.95 234.403 1226.95 234.403C1226.95 234.403 1210.11 245.895 1197.63 233.388C1186.88 222.613 1194.83 208.428 1194.83 208.428C1194.83 208.428 1194.48 209.744 1194.48 211.272C1194.48 212.799 1195.34 213.962 1195.34 213.962C1195.34 213.962 1197.88 208.754 1199.87 206.636C1201.74 204.632 1204.09 203.007 1206.12 201.603C1207.69 200.522 1209.06 199.572 1209.88 198.682C1214.4 193.781 1211.63 184.854 1211.63 184.854C1211.63 184.854 1216.72 189.21 1218.15 194.836C1218.69 196.98 1218.34 199.42 1218.03 201.602C1217.52 205.144 1217.11 208.006 1220.77 207.82C1226.68 207.52 1221.54 198.682 1221.54 198.682C1221.54 198.682 1234.95 205.517 1233.95 217.469C1232.94 229.422 1219.29 232.14 1219.29 232.14C1219.29 232.14 1222.86 229.297 1223.56 226.841Z" fill="white"/>
            <path fill-rule="evenodd" clip-rule="evenodd" d="M286.427 505.973C282.368 506.174 277.721 506.174 276.142 505.973C263.824 504.407 254 495.702 254 483.935C254 472.168 264.074 462.629 276.5 462.629C288.926 462.629 299 472.168 299 483.935C299 489.407 296.821 494.398 293.24 498.171C292.267 499.196 293.601 499.915 294.957 500.645C296.287 501.361 297.637 502.088 296.852 503.126C295.988 504.27 291.3 505.732 286.427 505.973ZM273.336 481.271C273.336 483.11 271.762 484.6 269.82 484.6C267.879 484.6 266.305 483.11 266.305 481.271C266.305 480.038 267.013 478.962 268.065 478.387C268.125 479.99 269.489 481.271 271.162 481.271H273.336V481.271ZM284.232 478.387C284.172 479.99 282.808 481.271 281.135 481.271H278.961V481.271C278.961 483.11 280.535 484.6 282.477 484.6C284.418 484.6 285.992 483.11 285.992 481.271C285.992 480.038 285.284 478.962 284.232 478.387Z" fill="white"/>
            <path fill-rule="evenodd" clip-rule="evenodd" d="M1091.22 436.801C1091.05 436.642 1090.88 436.48 1090.71 436.314C1081.76 427.589 1081.76 413.443 1090.71 404.718C1099.65 395.993 1128.16 395.409 1128.16 395.409C1128.16 395.409 1132.05 427.589 1123.1 436.314C1115.16 444.064 1102.83 444.93 1093.9 438.915L1101.1 430.307L1112.59 427.886L1103.21 426.971L1109.17 421.048L1115.96 419.597L1110.59 418.046L1115.96 408.6L1108.33 416.954L1105.38 412.896L1106.41 419.597L1101.1 425.445L1098.63 418.046V427.886L1091.22 436.801Z" fill="white"/>
            <path fill-rule="evenodd" clip-rule="evenodd" d="M1347.47 331.86L1333.92 325.224L1334.33 340.055L1347.13 346.32L1347.47 331.86ZM1362.52 340.235L1362.35 325.285L1349.17 332.379L1349.33 346.495L1362.52 340.235ZM1362.51 356.226L1375.57 348.843L1362.51 342.05L1349.45 348.831L1362.51 356.226ZM1347.12 348.843L1334.07 356.226L1321 348.831L1334.06 342.05L1347.12 348.843ZM1362.72 372.235L1349.16 365.6L1349.51 351.14L1362.31 357.405L1362.72 372.235ZM1334.21 357.42L1334.39 372.37L1347.57 365.276L1347.41 351.16L1334.21 357.42Z" fill="white"/>
            <path fill-rule="evenodd" clip-rule="evenodd" d="M220 341.582C220 351.11 212.165 358.834 202.5 358.834C192.835 358.834 185 351.11 185 341.582C185 332.316 201.553 306.866 202.461 305.477C202.482 305.446 202.518 305.446 202.539 305.477C203.447 306.866 220 332.316 220 341.582ZM199.583 353.303C190.702 351.38 192.222 341.646 192.222 341.646C192.222 341.646 194.647 347.523 200.532 349.426C206.416 351.329 213.528 348.538 213.528 348.538C213.528 348.538 208.463 355.226 199.583 353.303Z" fill="white"/>
            <path fill-rule="evenodd" clip-rule="evenodd" d="M389.754 101.818C396.786 101.818 402.806 97.9175 405.291 92.3886C405.321 92.3211 395.313 94.9844 395.632 94.0429C395.775 93.6225 401.91 91.3857 406.38 88.7768C408.949 87.2772 410.132 84.1028 410.132 84.1028C410.132 84.1028 405.803 86.2001 403.615 86.7321C399.206 87.8044 395.325 87.6889 395.325 87.5772C395.325 87.3356 401.77 86.1134 410.727 80.6656C414.941 78.1031 416.085 73.6893 416.085 73.6893C416.085 73.6893 411.453 76.4431 408.653 77.3523C402.012 79.5083 395.951 80.158 395.951 79.8663C395.951 79.2416 401.285 77.778 406.939 75.0435C409.879 73.6218 412.425 71.7644 415.376 69.6987C420.204 66.319 421 60.2998 421 60.2998C421 60.2998 416.238 63.365 413.914 64.3829C404.326 68.5832 395.859 70.7865 389.754 71.2635C380.539 71.9836 373 78.4006 373 86.7321C373 95.0637 380.501 101.818 389.754 101.818Z" fill="white"/>
        </g>
    </g>
    <defs>
        <radialGradient id="paint0_radial_8833_24385" cx="0" cy="0" r="1" gradientUnits="userSpaceOnUse" gradientTransform="translate(793.5 781.564) rotate(-90) scale(653.05 1332)">
            <stop stop-color="#05276D"/>
            <stop offset="1" stop-color="#4C83F5" stop-opacity="0"/>
        </radialGradient>
        <linearGradient id="paint1_linear_8833_24385" x1="815" y1="334" x2="516" y2="729" gradientUnits="userSpaceOnUse">
            <stop stop-color="#6F96E8"/>
            <stop offset="1" stop-color="#6F96E8" stop-opacity="0"/>
        </linearGradient>
        <linearGradient id="paint2_linear_8833_24385" x1="840.147" y1="257.765" x2="462" y2="757.324" gradientUnits="userSpaceOnUse">
            <stop stop-color="#6F96E8"/>
            <stop offset="1" stop-color="#6F96E8" stop-opacity="0"/>
        </linearGradient>
        <linearGradient id="paint3_linear_8833_24385" x1="865.76" y1="180.118" x2="407" y2="786.172" gradientUnits="userSpaceOnUse">
            <stop stop-color="#6F96E8"/>
            <stop offset="1" stop-color="#6F96E8" stop-opacity="0"/>
        </linearGradient>
    </defs>
</svg>
