<svg width="191" height="508" viewBox="0 0 191 508" fill="none" xmlns="http://www.w3.org/2000/svg">
    <rect width="191" height="508" fill="url(#paint0_linear_8817_24377)"/>
    <mask id="mask0_8817_24377" style="mask-type:alpha" maskUnits="userSpaceOnUse" x="0" y="0" width="173" height="508">
        <rect width="173" height="508" fill="url(#paint1_linear_8817_24377)"/>
    </mask>
    <g mask="url(#mask0_8817_24377)">
        <path opacity="0.1" d="M97 259.735C97 350.167 26.7697 422.762 -59 422.762C-144.77 422.762 -215 350.167 -215 259.735C-215 169.304 -144.77 96.709 -59 96.709C26.7697 96.709 97 169.304 97 259.735Z" stroke="url(#paint2_linear_8817_24377)" stroke-width="20"/>
        <path opacity="0.1" d="M165.07 264.947C165.07 394.622 64.3277 498.964 -59 498.964C-182.328 498.964 -283.07 394.622 -283.07 264.947C-283.07 135.272 -182.328 30.9302 -59 30.9302C64.3277 30.9302 165.07 135.272 165.07 264.947Z" stroke="url(#paint3_linear_8817_24377)" stroke-width="21.8605"/>
    </g>
    <defs>
        <linearGradient id="paint0_linear_8817_24377" x1="25.3623" y1="11.4233" x2="362.969" y2="245.34" gradientUnits="userSpaceOnUse">
            <stop stop-color="#D6EBDC"/>
            <stop offset="1" stop-color="#E3FFA7"/>
        </linearGradient>
        <linearGradient id="paint1_linear_8817_24377" x1="22.9721" y1="11.4233" x2="347.678" y2="215.199" gradientUnits="userSpaceOnUse">
            <stop stop-color="#D6EBDC"/>
            <stop offset="1" stop-color="#E3FFA7"/>
        </linearGradient>
        <linearGradient id="paint2_linear_8817_24377" x1="18.3039" y1="15.4628" x2="-237.963" y2="340.262" gradientUnits="userSpaceOnUse">
            <stop stop-color="#68AE28"/>
            <stop offset="1" stop-color="#68AE28"/>
        </linearGradient>
        <linearGradient id="paint3_linear_8817_24377" x1="50.4363" y1="-80.8606" x2="-312.351" y2="378.945" gradientUnits="userSpaceOnUse">
            <stop stop-color="#68AE28"/>
            <stop offset="1" stop-color="#68AE28"/>
        </linearGradient>
    </defs>
</svg>
