<svg width="100" height="100" viewBox="0 0 100 100" fill="none" xmlns="http://www.w3.org/2000/svg">
    <path d="M79.4875 20.5333C71.6292 12.6708 61.1792 8.33751 50.0458 8.33334C27.1042 8.33334 8.43334 26.9958 8.42501 49.9375C8.42084 57.2708 10.3375 64.4292 13.9792 70.7375L8.33334 91.6667L30.1375 86.5125C36.2167 89.8292 43.0583 91.575 50.025 91.5792H50.0417C72.9792 91.5792 91.65 72.9125 91.6625 49.975C91.6708 38.8542 87.3458 28.4 79.4875 20.5333ZM70.4083 64.8083C69.5417 67.2375 65.2958 69.5792 63.3875 69.75C61.4792 69.925 59.6917 70.6125 50.9083 67.15C40.3375 62.9833 33.6625 52.1458 33.1458 51.4542C32.625 50.7583 28.9 45.8167 28.9 40.7C28.9 35.5833 31.5875 33.0667 32.5417 32.0292C33.4958 30.9875 34.6208 30.7292 35.3167 30.7292C36.0083 30.7292 36.7042 30.7292 37.3083 30.7542C38.05 30.7833 38.8708 30.8208 39.65 32.55C40.575 34.6083 42.5958 39.75 42.8542 40.2708C43.1125 40.7917 43.2875 41.4 42.9417 42.0917C42.5958 42.7833 42.4208 43.2167 41.9042 43.825C41.3833 44.4333 40.8125 45.1792 40.3458 45.6458C39.825 46.1625 39.2833 46.7292 39.8875 47.7667C40.4958 48.8083 42.5792 52.2125 45.6708 54.9667C49.6458 58.5083 52.9917 59.6042 54.0333 60.1292C55.075 60.65 55.6792 60.5625 56.2875 59.8667C56.8958 59.175 58.8875 56.8333 59.5792 55.7917C60.2708 54.75 60.9667 54.925 61.9208 55.2708C62.875 55.6167 67.9875 58.1333 69.025 58.6542C70.0667 59.175 70.7583 59.4333 71.0167 59.8667C71.275 60.2958 71.275 62.3792 70.4083 64.8083Z" fill="white"/>
</svg>
