<svg width="100" height="100" viewBox="0 0 100 100" fill="none" xmlns="http://www.w3.org/2000/svg">
    <path d="M79.1667 12.5H20.8333C16.2292 12.5 12.5 16.2292 12.5 20.8333V79.1667C12.5 83.7708 16.2292 87.5 20.8333 87.5H79.1667C83.7708 87.5 87.5 83.7708 87.5 79.1667V20.8333C87.5 16.2292 83.7708 12.5 79.1667 12.5ZM37.5 70.8333H26.9875V41.6667H37.5V70.8333ZM32.0583 36.3208C28.8458 36.3208 26.7 34.1792 26.7 31.3208C26.7 28.4625 28.8417 26.3208 32.4125 26.3208C35.625 26.3208 37.7708 28.4625 37.7708 31.3208C37.7708 34.1792 35.6292 36.3208 32.0583 36.3208ZM75 70.8333H64.825V54.8917C64.825 50.4833 62.1125 49.4667 61.0958 49.4667C60.0792 49.4667 56.6875 50.1458 56.6875 54.8917C56.6875 55.5708 56.6875 70.8333 56.6875 70.8333H46.175V41.6667H56.6875V45.7375C58.0417 43.3625 60.7542 41.6667 65.8417 41.6667C70.9292 41.6667 75 45.7375 75 54.8917V70.8333Z" fill="white"/>
</svg>
